<svg width="91" height="66" viewBox="0 0 91 66" fill="none" xmlns="http://www.w3.org/2000/svg">
<path d="M9.18996 63.5371L0 66L17.6841 0L45.2055 27.5215L9.18996 63.5371Z" fill="url(#paint0_linear_13_1745)"/>
<path d="M9.18979 63.5371L8.09369 63.8314L44.8038 27.12L45.2054 27.5215L9.18979 63.5371Z" fill="#F98AFE"/>
<path d="M9.19043 63.5369L12.8855 59.8432L24.4128 48.3145L45.206 27.5214L28.2583 49.3452L19.3535 60.8137L11.0386 63.0412L9.19043 63.5369Z" fill="#1E003D"/>
<path d="M3.79584 51.8292L17.6841 0C28.4842 18.0895 22.2241 41.5327 3.79584 51.8292Z" fill="url(#paint1_linear_13_1745)"/>
<path d="M3.79584 51.8292L5.57733 45.1807C19.1255 34.9012 24.5641 16.4088 17.6841 0C28.2723 17.7351 22.4779 40.6956 4.74283 51.2838C4.42891 51.4708 4.11368 51.6526 3.79584 51.8292Z" fill="#1E003D"/>
<path d="M3.59473 52.5813L3.79615 51.8292C22.2245 41.5327 28.4845 18.0895 17.6844 0L19.1455 1.46103C23.5194 9.74455 24.6809 19.3256 22.3762 28.4593C19.8099 38.6316 13.2294 47.1989 4.06953 52.3171L3.59473 52.5813Z" fill="#F98AFE"/>
<path d="M17.6836 0L45.2038 27.5202L42.6584 30.0681C36.3827 35.4217 27.6256 36.9312 19.915 33.983C24.493 23.3464 24.0901 10.7308 17.6836 0Z" fill="url(#paint2_linear_13_1745)"/>
<path d="M81.016 63.5371L90.206 66L72.5219 0L45.0005 27.5215L81.016 63.5371Z" fill="url(#paint3_linear_13_1745)"/>
<path d="M81.0162 63.5371L82.1123 63.8314L45.4022 27.1199L45.0006 27.5215L81.0162 63.5371Z" fill="#F98AFE"/>
<path d="M81.0156 63.5369L77.3205 59.8432L65.7931 48.3145L45 27.5214L61.9477 49.3452L70.8525 60.8137L79.1674 63.0412L81.0156 63.5369Z" fill="#1E003D"/>
<path d="M86.4102 51.8292L72.5219 0C61.7218 18.0895 67.9818 41.5327 86.4102 51.8292Z" fill="url(#paint4_linear_13_1745)"/>
<path d="M86.4102 51.8292L84.6287 45.1807C71.0805 34.9012 65.6418 16.4088 72.5219 0C61.9337 17.7351 67.7281 40.6956 85.4632 51.2838C85.7771 51.4708 86.0923 51.6526 86.4102 51.8292Z" fill="#1E003D"/>
<path d="M86.6113 52.5813L86.4098 51.8292C67.9815 41.5327 61.7215 18.0895 72.5216 0L71.0605 1.46103C66.6866 9.74455 65.5251 19.3256 67.8298 28.4593C70.3961 38.6316 76.9766 47.1989 86.1365 52.3171L86.6113 52.5813Z" fill="#F98AFE"/>
<path d="M72.5224 0L45.0022 27.5202L47.5476 30.0681C53.8233 35.4217 62.5803 36.9312 70.291 33.983C65.713 23.3464 66.1159 10.7308 72.5224 0Z" fill="url(#paint5_linear_13_1745)"/>
<defs>
<linearGradient id="paint0_linear_13_1745" x1="22.6028" y1="64.7325" x2="22.6028" y2="-64.2328" gradientUnits="userSpaceOnUse">
<stop stop-color="#FF2966"/>
<stop offset="0.24" stop-color="#5E17A9"/>
</linearGradient>
<linearGradient id="paint1_linear_13_1745" x1="23.3996" y1="0.578172" x2="3.33627" y2="75.4622" gradientUnits="userSpaceOnUse">
<stop stop-color="#5E17A9"/>
<stop offset="1" stop-color="#1E003D"/>
</linearGradient>
<linearGradient id="paint2_linear_13_1745" x1="31.4437" y1="0" x2="31.4437" y2="35.4684" gradientUnits="userSpaceOnUse">
<stop stop-color="#EC7EEC"/>
<stop offset="1" stop-color="#811A9B"/>
</linearGradient>
<linearGradient id="paint3_linear_13_1745" x1="67.6032" y1="64.7325" x2="67.6032" y2="-64.2328" gradientUnits="userSpaceOnUse">
<stop stop-color="#FF2966"/>
<stop offset="0.24" stop-color="#5E17A9"/>
</linearGradient>
<linearGradient id="paint4_linear_13_1745" x1="66.8064" y1="0.578172" x2="86.8697" y2="75.4622" gradientUnits="userSpaceOnUse">
<stop stop-color="#5E17A9"/>
<stop offset="1" stop-color="#1E003D"/>
</linearGradient>
<linearGradient id="paint5_linear_13_1745" x1="58.7623" y1="0" x2="58.7623" y2="35.4684" gradientUnits="userSpaceOnUse">
<stop stop-color="#EC7EEC"/>
<stop offset="1" stop-color="#811A9B"/>
</linearGradient>
</defs>
</svg>
