<svg width="19" height="18" viewBox="0 0 19 18" fill="none" xmlns="http://www.w3.org/2000/svg">
<path d="M10.631 2.63248L11.951 5.27248C12.131 5.63998 12.611 5.99248 13.016 6.05998L15.4085 6.45748C16.9385 6.71248 17.2985 7.82248 16.196 8.91748L14.336 10.7775C14.021 11.0925 13.8485 11.7 13.946 12.135L14.4785 14.4375C14.8985 16.26 13.931 16.965 12.3185 16.0125L10.076 14.685C9.67099 14.445 9.00349 14.445 8.59099 14.685L6.34849 16.0125C4.74349 16.965 3.76849 16.2525 4.18849 14.4375L4.72099 12.135C4.81849 11.7 4.64599 11.0925 4.33099 10.7775L2.47099 8.91748C1.37599 7.82248 1.72849 6.71248 3.25849 6.45748L5.65099 6.05998C6.04849 5.99248 6.52849 5.63998 6.70849 5.27248L8.02849 2.63248C8.74849 1.19998 9.91849 1.19998 10.631 2.63248Z" fill="#FFCD1A"/>
</svg>
